<svg width="38" height="38" viewBox="0 0 38 38" fill="none" xmlns="http://www.w3.org/2000/svg">
<path d="M36.4605 9.06801C36.5866 9.04464 36.7394 9.02977 36.8568 9.01278C37.0113 9.0098 37.1639 9.04569 37.2995 9.11688C37.3224 9.129 37.3484 9.13452 37.3744 9.13277C37.4004 9.13103 37.4253 9.12209 37.4462 9.10703C37.467 9.09198 37.4829 9.07145 37.4918 9.04794C37.5008 9.02443 37.5024 8.99893 37.4966 8.97453C37.4523 8.84069 37.3881 8.68135 37.3527 8.57087C37.3364 8.52254 37.3075 8.479 37.2688 8.44442C37.23 8.40983 37.1827 8.38534 37.1313 8.37329C37.0705 8.36057 37.0175 8.32523 36.9839 8.27504C36.9503 8.22485 36.9388 8.16391 36.952 8.1056C36.9718 8.02295 37.0087 7.94494 37.0604 7.87615C37.2153 7.68639 37.3239 7.46578 37.3783 7.2305C37.4327 6.99521 37.4315 6.75123 37.3748 6.51644C37.2966 6.28899 37.1406 6.09358 36.932 5.96194C36.911 5.94987 36.8929 5.93357 36.879 5.91417C36.8651 5.89477 36.8557 5.87272 36.8515 5.84952C36.8473 5.82633 36.8484 5.80253 36.8546 5.77977C36.8609 5.757 36.8722 5.7358 36.8877 5.71762C36.9488 5.63721 36.9827 5.54086 36.9852 5.44143C36.9776 5.22755 36.9327 5.01642 36.8523 4.81681C36.8313 4.69869 36.8313 4.57801 36.8523 4.45989C36.8877 4.29418 36.6619 4.1922 36.6619 4.1922C36.6619 4.1922 36.8324 4.01799 36.6619 3.66956C36.4914 3.32114 35.3335 3.21279 35.3335 3.21279C35.3335 3.21279 35.504 2.50107 34.5697 2.15052C33.8148 1.87433 33.2126 3.00033 33.0067 3.46136C32.9794 3.51625 32.9332 3.56042 32.8759 3.58636C32.8186 3.6123 32.7537 3.61843 32.6923 3.6037C32.6607 3.60025 32.6307 3.58871 32.6053 3.57029C32.58 3.55187 32.5603 3.52724 32.5483 3.49899C32.5363 3.47074 32.5324 3.43991 32.5371 3.40974C32.5418 3.37957 32.5549 3.35117 32.5749 3.32751L33.1948 2.69015C33.2216 2.66176 33.2409 2.62759 33.251 2.59053C33.2611 2.55348 33.2617 2.51463 33.2528 2.4773C33.2438 2.43997 33.2257 2.40525 33.1998 2.3761C33.1739 2.34695 33.1411 2.32422 33.1041 2.30986L33.0332 2.27799L33.0686 2.26312C33.1996 2.21969 33.3071 2.12816 33.3678 2.00865C33.4284 1.88913 33.4371 1.75141 33.3919 1.62576V1.62363C33.3661 1.55336 33.3246 1.48937 33.2703 1.43614C33.216 1.38292 33.1502 1.34177 33.0775 1.31557L32.9491 1.26671C32.8173 1.21522 32.709 1.1203 32.6436 0.999017L32.5462 0.809933C32.4888 0.709089 32.4023 0.626336 32.297 0.571669C32.1917 0.517003 32.0721 0.492762 31.9528 0.501875C31.2073 0.564983 30.5078 0.874347 29.9735 1.37718C28.8422 2.37359 28.0496 6.73739 27.9145 7.59783C27.898 7.6981 27.8519 7.79174 27.7817 7.86765C27.6636 8.00362 27.4658 8.21961 27.1883 8.51563C26.1574 9.5586 24.8503 10.3128 23.4069 10.6975C21.7172 10.891 20.0163 10.9804 18.3148 10.9652C16.543 10.9785 14.7832 10.6871 13.1186 10.1048C11.9275 9.43768 10.9112 5.97044 9.55408 4.68297C8.58078 3.82831 7.3905 3.23412 6.10251 2.95997C5.85411 2.91171 5.59939 2.90096 5.34754 2.9281C5.31661 2.93222 5.28509 2.928 5.25651 2.91592C5.22793 2.90383 5.20342 2.88434 5.18573 2.85964C5.16803 2.83495 5.15785 2.80601 5.15632 2.77608C5.15479 2.74614 5.16198 2.71639 5.17707 2.69015C5.23882 2.59661 5.29286 2.49858 5.33869 2.39696C5.3564 2.29498 5.18593 2.04216 5.18593 2.04216L4.8804 1.80422L4.7542 1.6385L4.41103 1.53652L4.34904 1.49616C4.32932 1.48632 4.30767 1.48055 4.28548 1.47922C4.26329 1.47788 4.24106 1.48102 4.22021 1.48842C4.19936 1.49583 4.18035 1.50733 4.16441 1.5222C4.14847 1.53707 4.13595 1.55498 4.12765 1.57477L4.02802 1.85308C4.02802 1.85308 3.80662 1.42817 3.65829 1.49616C3.41696 1.61513 3.65829 2.23975 3.65829 2.23975C3.65829 2.23975 3.21549 1.52803 2.96753 1.6385C2.52473 1.82971 3.05609 2.74539 3.05609 2.74539C3.05609 2.74539 2.72399 2.18451 2.49152 2.27162C2.37418 2.30986 2.49152 3.0152 2.49152 3.0152C2.49152 3.0152 2.2502 2.93447 2.15943 2.97484C2.06866 3.0152 2.25906 3.56758 2.25906 3.56758H1.97567C1.9388 3.56668 1.90257 3.57683 1.87201 3.59664C1.84145 3.61644 1.81809 3.64491 1.80519 3.67806L1.76977 3.77366L1.60815 3.89901C1.54419 3.94959 1.49548 4.01565 1.46707 4.09035C1.43865 4.16506 1.43156 4.2457 1.44653 4.32392L1.48195 4.50663L1.43546 4.69571L1.45539 4.90817C1.19925 5.08909 0.966604 5.29879 0.762414 5.53278C0.579252 5.82534 0.4885 6.16262 0.501166 6.50369C0.606754 6.3863 0.743802 6.29887 0.897466 6.25087L1.32033 6.03842C1.58038 5.91119 1.87418 5.86161 2.16386 5.89608H2.69521C2.58321 6.14013 2.50864 6.39847 2.47381 6.66304C2.47384 6.84024 2.51411 7.01532 2.59183 7.17607C2.66955 7.33682 2.78284 7.47939 2.92382 7.59385C3.0648 7.70831 3.23008 7.7919 3.40816 7.83882C3.58624 7.88574 3.77284 7.89485 3.95496 7.86552C4.13229 7.84234 4.30194 7.78124 4.45138 7.68674C4.60082 7.59224 4.72625 7.46674 4.81841 7.31952C4.08095 8.79002 3.60074 10.367 3.39704 11.9871C3.10933 14.5009 3.83934 17.0246 5.4361 19.0363C8.00874 22.1849 11.8743 22.9731 12.802 23.6126C13.7296 24.2521 14.9584 25.5735 15.8218 26.0155C16.5857 26.4106 17.6926 27.5642 18.9059 28.4587C19.3451 28.8107 19.8214 29.1176 20.3273 29.3743C19.9777 30.8762 19.4871 32.3446 18.8616 33.7615C18.8054 33.8729 18.7144 33.9646 18.6013 34.024C18.4882 34.0834 18.3587 34.1075 18.2306 34.0929C17.6156 34.0361 16.9971 34.0205 16.3798 34.0462C15.9676 34.1169 15.566 34.236 15.1842 34.401C15.0934 34.4329 15.1311 34.5434 15.2196 34.5434C15.6425 34.5434 16.289 34.5433 16.5325 34.5667C16.5325 34.5667 17.0174 34.7091 17.0262 34.7091C16.9554 34.7091 16.362 34.7261 16.2624 34.7346C15.3532 34.79 14.4508 34.9222 13.5658 35.1297C13.5484 35.1353 13.5336 35.1464 13.5238 35.1612C13.5139 35.176 13.5097 35.1935 13.5118 35.211C13.5139 35.2284 13.5221 35.2446 13.5352 35.2569C13.5482 35.2692 13.5653 35.2768 13.5835 35.2784C14.0263 35.3188 14.8787 35.3974 15.2551 35.4527C15.8218 35.5398 16.0565 35.8011 16.6499 35.9031C16.4349 36.0415 16.2057 36.1582 15.9657 36.2515C15.6779 36.3152 15.275 36.9632 15.0314 37.3902C14.996 37.4518 15.0757 37.5241 15.1576 37.4922C15.6602 37.2394 16.7761 36.67 16.9111 36.6233C17.8121 36.2512 18.756 35.9831 19.7228 35.8244C19.7871 35.8096 19.8955 35.7841 20.0749 35.5164C20.5597 35.5801 21.0999 35.6672 21.5405 35.7458C21.3263 35.8849 21.0969 36.001 20.8564 36.0921C20.5686 36.1559 20.1922 36.7805 19.931 37.216C19.9238 37.2323 19.9222 37.2504 19.9265 37.2676C19.9308 37.2848 19.9408 37.3003 19.9549 37.3117C19.969 37.3231 19.9865 37.3298 20.0049 37.331C20.0233 37.3321 20.0416 37.3276 20.0572 37.318C20.4999 37.0737 21.3235 36.6063 21.6844 36.4257C22.63 36.0843 23.608 35.8324 24.6046 35.6736C24.6777 35.6587 24.8128 35.6184 25.0474 35.2147C25.1309 35.0753 25.2661 34.9714 25.426 34.9236C25.7295 34.8105 26.0462 34.7334 26.3692 34.6942C26.5684 34.9066 27.2149 34.9066 27.5027 34.8918H27.6909C27.7016 34.8921 27.7121 34.8895 27.7213 34.8842C27.7304 34.8789 27.7378 34.8712 27.7424 34.862C27.7471 34.8528 27.7489 34.8425 27.7476 34.8323C27.7464 34.8221 27.742 34.8125 27.7352 34.8047L27.6112 34.6793C27.6112 34.6623 27.2946 34.3543 27.0622 34.1418C26.6075 33.971 26.1191 33.8984 25.6319 33.9294C25.84 33.3918 26.0902 32.7035 26.3692 31.7793C26.6304 30.989 26.8651 30.1902 27.0533 29.4954C28.0935 29.0099 28.9052 28.1665 29.327 27.133C30.0541 26.6379 30.6682 26.0058 31.1318 25.2752C31.5955 24.5446 31.899 23.7309 32.0237 22.8839C31.8548 21.1391 31.4223 19.4272 30.7396 17.802C31.7176 17.6745 32.6656 17.3871 33.5424 16.9522C34.6116 15.9997 35.2776 14.7025 35.4132 13.3086C35.4988 12.5793 35.535 11.8456 35.5217 11.1118C35.5302 11.0329 35.5594 10.9574 35.6067 10.8924C35.6539 10.8274 35.7176 10.7749 35.7918 10.74C35.9068 10.6926 36.0153 10.6319 36.1151 10.5594C36.4835 10.4334 36.8639 10.3423 37.2508 10.2875C37.2758 10.2856 37.2998 10.2778 37.3207 10.2646C37.3416 10.2514 37.3587 10.2334 37.3704 10.2122C37.3821 10.191 37.388 10.1674 37.3877 10.1434C37.3873 10.1194 37.3806 10.0959 37.3682 10.075C37.2411 9.90695 37.0863 9.75984 36.9099 9.63951L36.3874 9.30809C36.3659 9.29118 36.3501 9.26859 36.3419 9.24313C36.3338 9.21768 36.3335 9.19047 36.3413 9.1649C36.3491 9.13933 36.3645 9.11651 36.3857 9.09928C36.4069 9.08206 36.4329 9.07119 36.4605 9.06801ZM23.8718 33.7445C23.7833 33.9357 23.429 33.9357 23.1899 33.9187C22.5571 33.8506 21.9193 33.8349 21.2837 33.872C21.0361 33.8927 20.79 33.9268 20.5464 33.974C20.7435 33.4535 21.8416 30.0308 22.0564 29.2554C22.6454 28.9851 23.2052 28.6599 23.7279 28.2845C24.3589 27.7236 24.412 27.4453 24.412 27.4453C24.5362 28.1034 24.888 28.7022 25.4105 29.1449C25.0431 30.7195 24.5281 32.2589 23.8718 33.7445Z" fill="#C50202"/>
</svg>
