<svg width="47" height="46" viewBox="0 0 47 46" fill="none" xmlns="http://www.w3.org/2000/svg">
<path d="M21.6918 0.581152C21.6449 0.581152 21.6137 0.612402 21.5666 0.612402L21.3475 0.72207L7.85381 6.32627C7.02412 6.70205 6.27285 7.15586 5.55244 7.67246C5.55244 7.67246 5.52119 7.67246 5.52119 7.71934C5.17686 8.0168 4.84834 8.36123 4.55078 8.73691C4.20645 9.22227 3.90898 9.78574 3.67422 10.3805C3.53739 10.9243 3.4535 11.48 3.42373 12.0399V12.2277C3.42373 12.6818 3.48623 13.0888 3.64287 13.5114C3.67412 13.0573 3.79932 12.572 3.98721 12.1494C4.20635 11.6328 4.58193 11.1789 5.06729 10.8346C5.36475 10.6467 5.70918 10.4589 6.05361 10.3492C6.50752 10.2398 6.9458 10.1615 7.44668 10.0832C8.19814 10.0051 8.94961 9.97363 9.62266 9.94229C10.5148 9.94229 11.3912 9.97354 12.3307 10.0048C13.4576 10.0517 14.5377 10.1927 15.5553 10.3805C16.3537 10.5058 17.1051 10.6467 17.9191 10.8031L17.5434 10.2396L17.1363 9.37881C17.0268 9.03437 16.9484 8.65869 16.9484 8.31436V8.20459C16.9797 7.82891 17.0582 7.45322 17.246 7.07764L18.0757 5.95049L21.8325 1.0665C21.9106 1.03525 21.9106 0.956934 21.9106 0.878711C21.9106 0.800293 21.9106 0.72207 21.8325 0.659375C21.8013 0.6125 21.7229 0.581055 21.6916 0.581055L21.6918 0.581152ZM1.59385 12.1347C1.40596 12.4634 1.22051 12.8046 1.06396 13.1334C0.844383 13.6958 0.680512 14.2783 0.574707 14.8727C0.543457 15.1701 0.5 15.5129 0.5 15.8104C0.5 16.0764 0.547656 16.2957 0.547656 16.5305C0.657324 17.2036 0.764844 17.8474 0.921387 18.4734C1.32842 19.8667 1.97236 21.1507 2.86475 22.2308C3.36553 22.8413 3.88135 23.4033 4.41357 23.8887C4.93054 24.338 5.45603 24.7774 5.98975 25.2066C6.63164 25.692 7.3042 26.1145 7.89893 26.4432C8.80693 26.9754 9.75215 27.4596 10.6914 27.9448C14.104 29.7606 17.7458 31.0262 21.44 31.668C23.8821 32.0123 26.3275 32.3117 28.8322 32.5309C28.8322 33.0318 28.8627 33.547 28.9409 34.0323C29.0192 34.6427 29.1612 35.2828 29.396 35.8464C29.6151 36.4724 29.8833 37.0833 30.2589 37.6468C30.6659 38.2417 31.1466 38.7791 31.6788 39.3113C32.2737 39.8279 32.9183 40.2783 33.6696 40.6229C34.2331 40.8732 34.8418 41.0269 35.4836 41.1051C35.6715 41.1051 35.8598 41.1391 36.0476 41.1391C36.1572 41.1391 36.264 41.1051 36.3735 41.1051L46.4563 40.3851H46.4903C46.5216 40.3851 46.599 40.3548 46.599 40.2764C46.599 40.1982 46.5183 40.167 46.4086 40.1201C46.033 40.0104 45.6288 39.8689 45.2062 39.7124C44.7677 39.5559 44.2652 39.3735 43.827 39.264C43.1852 39.0448 42.5115 38.8069 41.8228 38.666C41.1384 38.506 40.4497 38.3656 39.7573 38.2448C39.3032 38.2136 38.8184 38.1369 38.3644 38.0273C38.3019 37.9961 38.2218 37.9126 38.2218 37.803C38.2218 37.803 38.2245 37.7598 38.256 37.7284C38.256 37.6815 38.3033 37.6468 38.3033 37.6468C38.3033 37.6155 38.3304 37.619 38.3304 37.5721C38.44 37.4939 38.6014 37.4173 38.7109 37.3547C38.9771 37.1981 39.2419 37.084 39.4924 36.9744C40.1342 36.6613 40.8078 36.4109 41.4966 36.0978C41.794 35.9882 42.0892 35.8813 42.3866 35.7718C42.8095 35.6152 43.2622 35.5044 43.8884 35.3165C44.0136 35.2853 44.1225 35.2391 44.2009 35.2078C44.4629 35.1263 44.7256 35.047 44.989 34.9699C44.4567 34.156 43.7843 33.3602 43.0798 32.687L41.6802 31.3418C41.1948 30.9191 40.7439 30.5427 40.3212 30.2139C39.6168 29.7131 38.9296 29.2282 38.3034 28.8213C37.0734 28.0062 35.7911 27.2731 34.4647 26.6267C33.7916 26.2978 33.1041 26.0036 32.0866 25.6278C31.1161 25.2835 30.1799 24.9381 30.3677 25.0163C29.5067 24.7502 28.5994 24.497 27.7385 24.2622L24.9321 16.7206C24.2121 17.0964 23.461 17.4696 22.8191 17.7671C22.2557 18.0332 21.6951 18.178 21.1002 18.2563C20.3801 18.4129 19.6734 18.4092 18.9533 18.3309L9.82871 17.5835L12.3018 20.539C12.3801 20.6643 12.4912 20.8038 12.6006 20.9604C12.6789 21.0387 12.6754 21.1 12.6754 21.2253C12.6441 21.3349 12.567 21.4157 12.4105 21.4157C11.9721 21.447 11.5192 21.4149 11.0652 21.3679C10.4234 21.2897 9.77812 21.1821 9.1834 20.9943C8.65117 20.8848 8.16953 20.6972 7.71562 20.478C7.1207 20.2432 6.50635 19.946 5.98984 19.6016C5.50449 19.3043 5.0084 18.9721 4.56992 18.5961C4.06895 18.2204 3.62695 17.7998 3.2043 17.3459C2.93818 17.0484 2.67598 16.6754 2.45684 16.2997C2.19072 15.7831 1.96787 15.246 1.81133 14.6825C1.70176 14.0722 1.59336 13.476 1.54648 12.9907C1.59336 12.7246 1.59385 12.4634 1.59385 12.1347ZM0.561231 22.1503L0.670605 23.0581C1.12471 25.9854 2.22041 28.8032 3.83291 31.3233C4.92861 33.0609 6.32188 34.5167 7.93428 35.6439L8.79521 36.2543L10.5169 37.3344C14.2896 39.5572 18.4536 41.0287 22.8211 41.6705L25.8582 41.921L28.9575 42.1089L32.2292 42.0776C31.3682 41.5454 30.5854 40.9191 29.8966 40.199L29.2235 39.4163C28.6601 38.6963 28.206 37.9448 27.9086 37.1151C27.7677 36.5829 27.6424 36.0978 27.5328 35.5812L27.3448 34.3759L24.089 34.0314L21.5372 33.7028L19.8155 33.4365C18.8292 33.2488 17.8588 32.9827 16.8726 32.6853L13.7259 31.5584L11.2839 30.4625L8.79502 29.2258L6.4625 27.9421L4.63096 26.7056L2.29873 24.5298L0.561231 22.1501V22.1503ZM38.9622 31.1652C39.6666 31.1652 40.2464 31.7634 40.2464 32.4834C40.2464 33.2192 39.6666 33.8015 38.9622 33.8015C38.2578 33.8015 37.6782 33.2192 37.6782 32.4835C37.6782 31.7636 38.2578 31.1654 38.9622 31.1654V31.1652ZM6.5335 39.5328C7.92666 40.4721 9.2415 41.4896 10.447 42.5854C11.4958 43.4776 12.435 44.4638 13.3742 45.4187C13.6403 45.4187 13.8596 45.3403 14.0473 45.2777C14.877 44.9021 15.6283 44.495 16.3798 44.041C17.0999 43.6341 17.7261 43.1489 18.2583 42.5854C17.8514 42.4289 17.4286 42.288 17.0216 42.1628C16.004 41.9123 15.0337 41.5679 14.0788 41.1452C13.3743 40.8478 12.7011 40.5192 12.0593 40.1435C11.981 40.1747 11.8715 40.1747 11.7932 40.1747C11.3393 40.1747 10.8853 40.1433 10.447 40.0649C9.13203 39.9554 7.81709 39.7676 6.5335 39.5327V39.5328Z" fill="#C50202"/>
</svg>
