<svg width="51" height="50" viewBox="0 0 51 50" fill="none" xmlns="http://www.w3.org/2000/svg">
<mask id="mask0_251_689" maskUnits="userSpaceOnUse" x="5" y="2" width="41" height="46">
<path d="M15.084 21.8753V12.5003C15.084 11.9478 15.3035 11.4179 15.6942 11.0272C16.0849 10.6365 16.6148 10.417 17.1673 10.417H20.2923C20.8449 10.417 21.3748 10.6365 21.7655 11.0272C22.1562 11.4179 22.3757 11.9478 22.3757 12.5003V22.917V6.25033C22.3757 5.69779 22.5951 5.16789 22.9858 4.77719C23.3765 4.38649 23.9064 4.16699 24.459 4.16699H27.584C28.1365 4.16699 28.6664 4.38649 29.0571 4.77719C29.4478 5.16789 29.6673 5.69779 29.6673 6.25033V22.917V14.5837C29.6673 14.0311 29.8868 13.5012 30.2775 13.1105C30.6682 12.7198 31.1981 12.5003 31.7507 12.5003H34.8757C35.4282 12.5003 35.9581 12.7198 36.3488 13.1105C36.7395 13.5012 36.959 14.0311 36.959 14.5837V21.8753" stroke="white" stroke-width="4.16667" stroke-linecap="round" stroke-linejoin="round"/>
<path d="M7.79199 18.75C7.79199 18.75 15.0837 23.9583 25.5003 23.9583C35.917 23.9583 43.2087 18.75 43.2087 18.75L38.1899 45.8333H12.8107L7.79199 18.75Z" fill="white" stroke="white" stroke-width="4.16667" stroke-linecap="round" stroke-linejoin="round"/>
<path d="M25.5 37.5C28.9518 37.5 31.75 36.1009 31.75 34.375C31.75 32.6491 28.9518 31.25 25.5 31.25C22.0482 31.25 19.25 32.6491 19.25 34.375C19.25 36.1009 22.0482 37.5 25.5 37.5Z" fill="black" stroke="black" stroke-width="4.16667"/>
</mask>
<g mask="url(#mask0_251_689)">
<path d="M0.5 0H50.5V50H0.5V0Z" fill="#C50202"/>
</g>
</svg>
