<svg width="11" height="11" viewBox="0 0 11 11" fill="currentColor" xmlns="http://www.w3.org/2000/svg">
<path d="M9.9 0.5H1.1C0.495 0.5 0.00549999 1.0625 0.00549999 1.75L0 9.25C0 9.9375 0.495 10.5 1.1 10.5H9.9C10.505 10.5 11 9.9375 11 9.25V1.75C11 1.0625 10.505 0.5 9.9 0.5ZM9.68 3.15625L5.7915 5.91875C5.6155 6.04375 5.3845 6.04375 5.2085 5.91875L1.32 3.15625C1.26485 3.12107 1.21656 3.07354 1.17804 3.01653C1.13952 2.95953 1.11158 2.89424 1.09592 2.82461C1.08025 2.75498 1.07718 2.68246 1.08689 2.61144C1.0966 2.54042 1.11888 2.47238 1.1524 2.41144C1.18592 2.35049 1.22998 2.29791 1.2819 2.25687C1.33382 2.21583 1.39253 2.18719 1.45447 2.17269C1.51642 2.15818 1.58031 2.1581 1.64228 2.17247C1.70424 2.18683 1.76301 2.21533 1.815 2.25625L5.5 4.875L9.185 2.25625C9.237 2.21533 9.29576 2.18683 9.35773 2.17247C9.41969 2.1581 9.48359 2.15818 9.54553 2.17269C9.60747 2.18719 9.66618 2.21583 9.7181 2.25687C9.77002 2.29791 9.81408 2.35049 9.8476 2.41144C9.88111 2.47238 9.90341 2.54042 9.91311 2.61144C9.92282 2.68246 9.91975 2.75498 9.90408 2.82461C9.88842 2.89424 9.86048 2.95953 9.82196 3.01653C9.78345 3.07354 9.73515 3.12107 9.68 3.15625Z" fill="currentColor"/>
</svg>
