<svg width="16" height="18" viewBox="0 0 16 18" fill="none" xmlns="http://www.w3.org/2000/svg">
<path d="M6.75078 14.625H15.5008V15.875H6.75078V14.625ZM2.48203 15.25L0.869531 16.8625L1.75078 17.75L4.25078 15.25L1.75078 12.75L0.863281 13.6313L2.48203 15.25ZM6.75078 8.375H15.5008V9.625H6.75078V8.375ZM2.48203 9L0.869531 10.6125L1.75078 11.5L4.25078 9L1.75078 6.5L0.863281 7.38125L2.48203 9ZM6.75078 2.125H15.5008V3.375H6.75078V2.125ZM2.48203 2.75L0.869531 4.3625L1.75078 5.25L4.25078 2.75L1.75078 0.25L0.863281 1.13125L2.48203 2.75Z" fill="black"/>
</svg>
