<svg width="14" height="13" viewBox="0 0 14 13" fill="none" xmlns="http://www.w3.org/2000/svg">
<path d="M13.563 9.9031C13.0286 9.44159 11.7342 8.76806 11.1062 8.49663C10.2884 8.14357 10.2211 8.11472 9.57831 8.52403C9.14955 8.79719 8.8645 9.04122 8.36271 8.94949C7.86091 8.85777 6.7705 8.34058 5.81572 7.52484C4.86094 6.70911 4.22251 5.74742 4.11515 5.31878C4.00779 4.89015 4.29722 4.64872 4.6129 4.28037C5.05782 3.76116 5.02416 3.67462 4.64386 2.97369C4.34737 2.42852 3.53864 1.32953 2.99815 0.873781C2.41996 0.384283 2.41996 0.470818 2.04741 0.603504C1.74409 0.712859 1.4531 0.845813 1.17811 1.0007C0.639631 1.30732 0.340778 1.56202 0.131782 1.94479C-0.0772131 2.32756 -0.171109 3.22493 0.908196 4.90543C1.9875 6.58594 2.74473 7.44523 4.31203 8.78479C5.87933 10.1243 7.0845 10.8446 8.84632 11.6915C11.0258 12.7377 11.8618 12.5338 12.3097 12.3549C12.7577 12.1761 13.0562 11.9222 13.4146 11.4607C13.5958 11.2254 13.7512 10.9763 13.879 10.7165C14.0342 10.3984 14.1352 10.3984 13.563 9.9031Z" fill="white"/>
</svg>
