<svg width="45" height="40" viewBox="0 0 45 40" fill="none" xmlns="http://www.w3.org/2000/svg">
<path fill-rule="evenodd" clip-rule="evenodd" d="M7.2936 0.149499C7.04982 0.0378517 6.78061 -0.0126535 6.51106 0.00268838C6.24151 0.0180302 5.98038 0.0987199 5.75199 0.237242C5.52361 0.375764 5.3354 0.567612 5.20489 0.794917C5.07438 1.02222 5.00582 1.27759 5.0056 1.53724V10.8298C5.0056 11.3191 4.7496 11.9068 4.2376 12.513C2.6856 14.3376 0.5 18.0362 0.5 24.2549C0.5 29.9228 3.268 33.9475 7.476 36.486C11.5912 38.9692 17.0216 40 22.5 40C27.972 40 33.4056 38.9692 37.5272 36.483C41.732 33.9475 44.5 29.9228 44.5 24.2549C44.5 18.0362 42.3144 14.3376 40.7624 12.513C40.2504 11.9068 39.9944 11.3191 39.9944 10.8268V1.53724C39.9942 1.27759 39.9256 1.02222 39.7951 0.794917C39.6646 0.567612 39.4764 0.375764 39.248 0.237242C39.0196 0.0987199 38.7585 0.0180302 38.4889 0.00268838C38.2194 -0.0126535 37.9502 0.0378517 37.7064 0.149499L28.132 4.53425L28.036 4.51579C27.5138 4.40592 26.9901 4.30334 26.4648 4.20809C25.2648 3.9927 23.6808 3.75269 22.5032 3.75269C21.3256 3.75269 19.7416 3.9927 18.5416 4.20809C17.9208 4.32194 17.3704 4.43271 16.9736 4.51579L16.8776 4.53425L7.2904 0.152576L7.2936 0.149499ZM31.9016 26.058C31.9016 30.1935 27.6904 32.6921 22.5 32.6921C17.3096 32.6921 13.0984 30.3843 13.0984 26.058C13.0984 21.7317 17.3096 19.424 22.5 19.424C27.6904 19.424 31.9016 21.9225 31.9016 26.058ZM13.5016 17.6916C12.9712 17.6916 12.4625 17.489 12.0874 17.1283C11.7123 16.7677 11.5016 16.2785 11.5016 15.7685C11.5016 15.2584 11.7123 14.7693 12.0874 14.4086C12.4625 14.0479 12.9712 13.8453 13.5016 13.8453C14.032 13.8453 14.5407 14.0479 14.9158 14.4086C15.2909 14.7693 15.5016 15.2584 15.5016 15.7685C15.5016 16.2785 15.2909 16.7677 14.9158 17.1283C14.5407 17.489 14.032 17.6916 13.5016 17.6916ZM31.5016 17.6916C32.032 17.6916 32.5407 17.489 32.9158 17.1283C33.2909 16.7677 33.5016 16.2785 33.5016 15.7685C33.5016 15.2584 33.2909 14.7693 32.9158 14.4086C32.5407 14.0479 32.032 13.8453 31.5016 13.8453C30.9712 13.8453 30.4625 14.0479 30.0874 14.4086C29.7123 14.7693 29.5016 15.2584 29.5016 15.7685C29.5016 16.2785 29.7123 16.7677 30.0874 17.1283C30.4625 17.489 30.9712 17.6916 31.5016 17.6916ZM25.7 28.3658C26.2304 28.3658 26.7391 28.1632 27.1142 27.8025C27.4893 27.4419 27.7 26.9527 27.7 26.4426C27.7 25.9326 27.4893 25.4434 27.1142 25.0828C26.7391 24.7221 26.2304 24.5195 25.7 24.5195C25.1696 24.5195 24.6609 24.7221 24.2858 25.0828C23.9107 25.4434 23.7 25.9326 23.7 26.4426C23.7 26.9527 23.9107 27.4419 24.2858 27.8025C24.6609 28.1632 25.1696 28.3658 25.7 28.3658ZM17.3 26.4426C17.3 25.9326 17.5107 25.4434 17.8858 25.0828C18.2609 24.7221 18.7696 24.5195 19.3 24.5195C19.8304 24.5195 20.3391 24.7221 20.7142 25.0828C21.0893 25.4434 21.3 25.9326 21.3 26.4426C21.3 26.9527 21.0893 27.4419 20.7142 27.8025C20.3391 28.1632 19.8304 28.3658 19.3 28.3658C18.7696 28.3658 18.2609 28.1632 17.8858 27.8025C17.5107 27.4419 17.3 26.9527 17.3 26.4426Z" fill="#C50202"/>
</svg>
