<svg width="17" height="16" viewBox="0 0 17 16" fill="none" xmlns="http://www.w3.org/2000/svg">
<path d="M15.15 15.125L9.6375 10.1375C9.2 10.4542 8.69688 10.7049 8.12813 10.8896C7.55938 11.0743 6.95417 11.1667 6.3125 11.1667C4.72292 11.1667 3.37775 10.6684 2.277 9.672C1.17625 8.67556 0.625584 7.4585 0.625 6.02083C0.624417 4.58317 1.17508 3.36611 2.277 2.36967C3.37892 1.37322 4.72408 0.875 6.3125 0.875C7.90092 0.875 9.24638 1.37322 10.3489 2.36967C11.4514 3.36611 12.0018 4.58317 12 6.02083C12 6.60139 11.8979 7.14896 11.6938 7.66354C11.4896 8.17812 11.2125 8.63333 10.8625 9.02917L16.375 14.0167L15.15 15.125ZM6.3125 9.58333C7.40625 9.58333 8.33608 9.23711 9.102 8.54467C9.86792 7.85222 10.2506 7.01094 10.25 6.02083C10.2494 5.03072 9.86675 4.18971 9.102 3.49779C8.33725 2.80588 7.40742 2.45939 6.3125 2.45833C5.21758 2.45728 4.28804 2.80376 3.52388 3.49779C2.75971 4.19182 2.37675 5.03283 2.375 6.02083C2.37325 7.00883 2.75621 7.85011 3.52388 8.54467C4.29154 9.23922 5.22108 9.58544 6.3125 9.58333Z" fill="black"/>
</svg>
