<svg width="58" height="57" viewBox="0 0 58 57" fill="none" xmlns="http://www.w3.org/2000/svg">
<path d="M7.35248 22.7326L6.17765 24.5052C5.8326 25.0257 5.64916 25.6366 5.6504 26.2611C5.65198 26.9831 6.06998 27.6394 6.72469 27.9449C7.99219 28.5382 9.44091 28.6146 10.7638 28.1579L11.8618 27.7795C12.1788 27.6687 12.5257 27.68 12.8349 27.8111C13.144 27.9423 13.3932 28.1839 13.5338 28.4888C14.0801 29.6906 15.1464 31.5415 16.8351 32.4677C17.4035 32.7797 18.0447 32.9309 18.6899 32.9871L21.1299 33.2016C21.7766 33.2586 22.2912 33.7637 22.3609 34.4097L22.6443 37.0452C22.7496 38.0173 22.7639 38.9974 22.6894 39.9727L22.5778 41.4215C22.5174 42.2106 22.7502 42.9942 23.2317 43.6223C23.3892 43.8276 23.6021 43.9835 23.8452 44.0719C24.0883 44.1604 24.3516 44.1775 24.6042 44.1214C24.8567 44.0652 25.088 43.9382 25.2708 43.7551C25.4536 43.572 25.5803 43.3406 25.636 43.0879L26.4499 39.3956C26.6557 38.4662 26.7903 37.5225 26.8536 36.5725L27.0143 34.1754C27.0618 33.4716 27.6397 32.9214 28.3443 32.9087L31.6353 32.8477C32.343 32.8343 33.0516 32.8707 33.7546 32.9554L36.4684 33.2824C37.1508 33.3647 37.8063 33.599 38.3866 33.9672C38.616 34.1122 38.8834 34.1854 39.1547 34.1773C39.4259 34.1693 39.6886 34.0804 39.909 33.922L41.9895 31.5811C42.1539 31.4625 42.3428 31.3822 42.5423 31.3461C42.7417 31.31 42.9468 31.319 43.1423 31.3724C43.3379 31.4259 43.519 31.5224 43.6724 31.6549C43.8258 31.7875 43.9476 31.9527 44.0288 32.1384L45.1926 35.5782C45.2733 35.7619 45.3113 35.9614 45.3058 36.1624L45.1649 41.0146C45.1451 41.693 45.3564 42.7554 45.6343 43.3753C45.79 43.7227 46.0428 44.0176 46.3624 44.2244C46.682 44.4312 47.0547 44.5411 47.4354 44.5407C47.8881 44.5405 48.327 44.3839 48.6775 44.0973C48.9426 43.8808 49.159 43.6106 49.3125 43.3046C49.466 42.9986 49.5531 42.6636 49.5681 42.3216L49.8547 35.7057C49.8617 35.5501 49.8416 35.3944 49.7953 35.2457C49.5879 34.5775 48.9839 32.6332 48.9482 32.4891C48.9166 32.3617 49.424 27.3623 49.6979 24.7078C49.7809 23.8578 49.9211 23.0144 50.1175 22.1832C50.4255 20.9062 50.7984 18.6033 49.8642 17.4356C48.531 15.7675 42.7954 15.9282 42.7954 15.9282L31.8989 15.9757C31.7849 15.9763 31.673 15.9625 31.5632 15.9346C30.633 15.6994 25.8617 14.603 23.4051 16.1412C23.1834 16.2805 22.7773 16.3375 22.5184 16.2972L22.1044 16.2314C21.5574 16.1444 21.0673 16.3375 20.7633 16.7262L20.2907 17.3295C20.1312 17.5326 19.9172 17.6861 19.6737 17.7722C19.4302 17.8582 19.1673 17.8733 18.9156 17.8156L16.3426 17.2218C16.2562 17.2022 16.1718 17.1741 16.0909 17.1379L14.7664 16.5426C13.7485 16.0849 12.5999 16.0082 11.5301 16.3264C10.762 16.5555 10.0723 16.9924 9.53702 17.589C9.00177 18.1856 8.64192 18.9185 8.49723 19.7069L8.43548 20.0441C8.26035 21.0044 7.89189 21.9191 7.35248 22.7326Z" fill="#C50202"/>
<path d="M31.7131 34.6783L30.7069 42.2387C30.6398 42.7559 30.4239 43.2424 30.0854 43.6392C29.7988 43.9756 29.6524 44.1379 29.3983 44.3002C29.0681 44.5116 27.8054 44.757 27.5758 44.7293L27.5473 44.7261C26.443 44.6042 25.7051 43.5236 25.964 42.4429L26.6876 39.4156C26.714 39.3074 26.7301 39.1979 26.7359 39.0871L26.9837 34.725C27.0074 34.3014 27.1745 33.8993 27.4587 33.5842L27.7928 33.2113C27.9601 33.0253 28.163 32.8749 28.3896 32.7688C28.6161 32.6627 28.8617 32.6032 29.1117 32.5938L29.7973 32.5701C30.0683 32.5602 30.3383 32.6097 30.5882 32.7149C30.8382 32.8201 31.0622 32.9786 31.2447 33.1794C31.4271 33.3801 31.5635 33.6182 31.6444 33.8771C31.7253 34.136 31.7487 34.4094 31.7131 34.6783Z" fill="#C50202"/>
<path d="M7.79335 13.1615C7.17269 12.8472 5.61785 13.3768 4.62669 14.8105C2.97448 17.2014 3.5896 20.908 8.78294 19.5938C8.78294 19.5938 10.3987 16.6907 14.6943 19.0396C14.6943 19.0396 19.358 23.0241 22.5381 18.4007C23.0662 17.4167 23.7914 12.7498 19.6019 12.7657L20.8384 15.8959C20.9564 16.1936 20.8915 16.5324 20.6722 16.7652C20.305 17.1544 19.8336 17.4297 19.3141 17.5581C18.7947 17.6866 18.2493 17.6628 17.743 17.4895C17.0384 17.2489 16.3513 17.0177 16.2119 16.9876C15.9079 16.9219 13.3706 16.0313 13.1878 16.0313C13.0049 16.0313 10.7289 16.3939 10.3987 16.6907C10.0686 16.9876 8.28815 17.6241 7.7601 17.6146C7.57133 17.6101 7.38264 17.603 7.19406 17.5932C7.02877 17.5854 6.86725 17.5412 6.72106 17.4636C6.57487 17.3861 6.44763 17.2772 6.34845 17.1447C6.24927 17.0123 6.18061 16.8595 6.14737 16.6974C6.11413 16.5353 6.11714 16.3678 6.15619 16.207C6.28919 15.66 6.40556 15.1351 6.37469 15.075C6.30898 14.9427 7.79335 13.1615 7.79335 13.1615Z" fill="#C50202"/>
<path d="M7.55347 13.8977C7.55347 13.8977 4.41293 16.7066 6.20526 17.8965C6.93201 18.3786 8.52959 17.5687 8.97609 17.0874C9.64901 16.3614 11.9472 14.1978 15.4868 16.8182C16.4162 17.507 17.5728 18.8472 19.4997 17.9162C20.6999 17.336 22.3814 15.0773 19.7055 13.5383M15.6625 20.9887C15.6625 20.9887 17.4992 20.4345 19.358 22.2245C19.358 22.2245 19.3628 24.6098 15.7678 24.6232M23.591 16.2181C23.591 16.2181 25.7198 14.1835 31.2465 15.5389C35.4502 16.5696 41.1407 15.8421 43.6257 15.4344C44.4467 15.2998 52.8985 15.6418 52.3483 22.7834C51.9604 27.8121 50.8267 31.5297 52.9476 34.1723M22.1415 32.5035C19.5092 32.8376 17.481 32.8233 16.0853 31.8599C14.6009 30.6114 13.7514 29.0336 13.0888 27.3577C11.8015 28.242 7.92159 28.9244 6.92567 28.4367C4.86497 27.4265 5.64793 25.3033 5.64793 25.3033L8.91117 20.3807" stroke="#C50202" stroke-width="1.38889" stroke-linecap="round" stroke-linejoin="round"/>
<path d="M27.8796 21.8604L28.2232 29.34C28.2232 29.34 26.0334 33.2334 26.6588 37.6486L25.4983 43.0263C25.4233 43.3738 25.2316 43.6851 24.955 43.9084C24.6784 44.1317 24.3337 44.2535 23.9783 44.2534H23.8864C22.8636 44.2534 22.1083 43.2813 22.3846 42.2964C22.8858 40.5104 23.3869 37.7364 22.7781 34.9783C21.5724 29.511 22.4527 28.1723 22.4527 28.1723" stroke="#C50202" stroke-width="1.38889" stroke-linecap="round" stroke-linejoin="round"/>
<path d="M26.9707 32.6881C26.9707 32.6881 35.2785 31.7381 39.2764 33.7204C39.2764 33.7204 41.7448 30.7999 43.2743 30.5569" stroke="#C50202" stroke-width="1.38889" stroke-linecap="round" stroke-linejoin="round"/>
<path d="M40.2679 23.8307C40.2679 23.8307 44.5302 32.6079 45.0163 34.1723C45.4018 35.4112 45.3551 40.4969 45.3614 42.4784C45.3694 44.8748 48.8179 44.5827 48.9121 42.6629C48.9865 41.1508 49.1527 38.1559 49.6341 35.9116C49.7766 35.2497 49.8716 34.5776 49.5509 33.9815C48.8068 32.5961 48.0468 29.8886 48.7696 26.3158C49.429 23.0517 49.3847 22.3052 49.3847 22.3052M31.6237 32.5802C31.6237 32.5802 30.5549 40.7581 30.5058 42.6542C30.4908 43.2424 29.7197 43.7316 29.1315 43.7316H28.2227" stroke="#C50202" stroke-width="1.38889" stroke-linecap="round" stroke-linejoin="round"/>
</svg>
